<svg width="24" height="16" viewBox="0 0 24 16" fill="none" xmlns="http://www.w3.org/2000/svg">
<g clip-path="url(#clip0_2238_248)">
<path d="M23.86 14.9749L12.3907 0.5967C12.201 0.3593 11.7998 0.3593 11.6102 0.5967L0.139601 14.9759C0.00300075 15.1479 -0.0374004 15.4042 0.0361996 15.6273C0.0513996 15.674 0.0683996 15.7097 0.0825996 15.7364C0.1703 15.8987 0.338499 16 0.523199 16L23.4776 16C23.6613 16 23.8305 15.8989 23.9174 15.7364C23.9321 15.7092 23.9491 15.6733 23.9633 15.6301C24.0375 15.4042 23.9973 15.1474 23.86 14.9749Z" fill="#B6FF71"/>
</g>
<defs>
<clipPath id="clip0_2238_248">
<rect width="24" height="16" fill="white" transform="matrix(-1 0 0 -1 24 16)"/>
</clipPath>
</defs>
</svg>
