<svg width="39" height="39" viewBox="0 0 39 39" fill="none" xmlns="http://www.w3.org/2000/svg">
<g clip-path="url(#clip0_299_1533)">
<path d="M29.6784 24.7437C28.5882 25.834 27.3483 26.655 25.9589 27.2068C24.5694 27.7586 23.1501 28.0345 21.7008 28.0345C20.2515 28.0345 18.8322 27.7586 17.4428 27.2068C16.0533 26.655 14.8135 25.834 13.7232 24.7437C12.6196 23.6402 11.7953 22.397 11.2501 21.0142C10.705 19.6314 10.4324 18.2154 10.4324 16.7661C10.4324 15.3168 10.7083 13.8975 11.2601 12.5081C11.8119 11.1186 12.6329 9.87877 13.7232 8.7885C14.4412 8.07051 15.2323 7.46554 16.0965 6.97359C16.9608 6.48164 17.8583 6.116 18.789 5.87667C18.2837 7.7913 18.2704 9.71257 18.7491 11.6405C19.2278 13.5684 20.2117 15.277 21.7008 16.7661C23.19 18.2553 24.8985 19.2392 26.8264 19.7178C28.7544 20.1965 30.6756 20.1832 32.5903 19.6779C32.3509 20.6087 31.9853 21.5061 31.4933 22.3704C31.0014 23.2346 30.3964 24.0257 29.6784 24.7437Z" fill="#FAF3FF"/>
</g>
<defs>
<clipPath id="clip0_299_1533">
<rect width="27.0769" height="27.0769" fill="white" transform="translate(0.161255 19.1592) rotate(-45)"/>
</clipPath>
</defs>
</svg>
