<svg width="24" height="24" viewBox="0 0 24 24" fill="none" xmlns="http://www.w3.org/2000/svg">
<path d="M5.1008 18.8972C6.46468 20.2599 8.20198 21.1877 10.0931 21.5633C11.9842 21.9388 13.9441 21.7452 15.7252 21.007C17.5063 20.2688 19.0286 19.0192 20.0996 17.416C21.1706 15.8128 21.7422 13.928 21.7422 12C21.7422 10.072 21.1706 8.18724 20.0996 6.58404C19.0286 4.98084 17.5063 3.73115 15.7252 2.99296C13.9441 2.25476 11.9842 2.0612 10.0931 2.43674C8.20198 2.81229 6.46468 3.74007 5.10079 5.10281C3.27444 6.93359 2.24878 9.41401 2.24878 12C2.24878 14.586 3.27444 17.0664 5.1008 18.8972ZM8.46642 7.7175C8.53608 7.64777 8.61879 7.59245 8.70984 7.5547C8.80089 7.51696 8.89848 7.49753 8.99704 7.49753C9.09561 7.49753 9.1932 7.51696 9.28425 7.5547C9.3753 7.59245 9.45802 7.64777 9.52767 7.7175L11.9989 10.1887L14.4692 7.7175C14.61 7.57677 14.8008 7.49771 14.9999 7.49771C15.1989 7.49771 15.3898 7.57677 15.5305 7.7175C15.6712 7.85823 15.7503 8.0491 15.7503 8.24812C15.7503 8.44715 15.6712 8.63802 15.5305 8.77875L12.5305 11.7787C12.4608 11.8485 12.3781 11.9038 12.2871 11.9415C12.196 11.9793 12.0984 11.9987 11.9999 11.9987C11.9013 11.9987 11.8037 11.9793 11.7127 11.9415C11.6216 11.9038 11.5389 11.8485 11.4692 11.7787L8.46923 8.77875C8.39932 8.70928 8.34378 8.62671 8.30579 8.53576C8.26781 8.44481 8.24812 8.34727 8.24786 8.24871C8.2476 8.15014 8.26677 8.0525 8.30427 7.96135C8.34177 7.8702 8.39687 7.78734 8.46642 7.7175ZM8.46642 12.9675C8.53608 12.8978 8.61879 12.8424 8.70984 12.8047C8.80089 12.767 8.89848 12.7475 8.99704 12.7475C9.09561 12.7475 9.1932 12.767 9.28425 12.8047C9.3753 12.8424 9.45802 12.8978 9.52767 12.9675L11.9989 15.4416L14.4692 12.9703C14.61 12.8296 14.8008 12.7505 14.9999 12.7505C15.1989 12.7505 15.3898 12.8296 15.5305 12.9703C15.6712 13.111 15.7503 13.3019 15.7503 13.5009C15.7503 13.7 15.6712 13.8908 15.5305 14.0316L12.5305 17.0316C12.4608 17.1013 12.3781 17.1566 12.2871 17.1944C12.196 17.2321 12.0984 17.2515 11.9999 17.2515C11.9013 17.2515 11.8037 17.2321 11.7127 17.1944C11.6216 17.1566 11.5389 17.1013 11.4692 17.0316L8.46923 14.0316C8.39932 13.9621 8.34378 13.8795 8.30579 13.7886C8.26781 13.6976 8.24812 13.6001 8.24786 13.5015C8.2476 13.403 8.26677 13.3053 8.30427 13.2142C8.34177 13.123 8.39687 13.0401 8.46642 12.9703L8.46642 12.9675Z" fill="white"/>
</svg>
