<svg width="26" height="26" viewBox="0 0 26 26" fill="none" xmlns="http://www.w3.org/2000/svg">
<path d="M22.75 12.1875V13.8125C22.75 14.028 22.6644 14.2347 22.512 14.387C22.3597 14.5394 22.153 14.625 21.9375 14.625H4.0625C3.84701 14.625 3.64035 14.5394 3.48798 14.387C3.3356 14.2347 3.25 14.028 3.25 13.8125V12.1875C3.25 11.972 3.3356 11.7653 3.48798 11.613C3.64035 11.4606 3.84701 11.375 4.0625 11.375H21.9375C22.153 11.375 22.3597 11.4606 22.512 11.613C22.6644 11.7653 22.75 11.972 22.75 12.1875ZM21.9375 17.875H4.0625C3.84701 17.875 3.64035 17.9606 3.48798 18.113C3.3356 18.2653 3.25 18.472 3.25 18.6875V20.3125C3.25 20.528 3.3356 20.7347 3.48798 20.887C3.64035 21.0394 3.84701 21.125 4.0625 21.125H21.9375C22.153 21.125 22.3597 21.0394 22.512 20.887C22.6644 20.7347 22.75 20.528 22.75 20.3125V18.6875C22.75 18.472 22.6644 18.2653 22.512 18.113C22.3597 17.9606 22.153 17.875 21.9375 17.875ZM21.9375 4.875H4.0625C3.84701 4.875 3.64035 4.9606 3.48798 5.11298C3.3356 5.26535 3.25 5.47201 3.25 5.6875V7.3125C3.25 7.52799 3.3356 7.73465 3.48798 7.88702C3.64035 8.0394 3.84701 8.125 4.0625 8.125H21.9375C22.153 8.125 22.3597 8.0394 22.512 7.88702C22.6644 7.73465 22.75 7.52799 22.75 7.3125V5.6875C22.75 5.47201 22.6644 5.26535 22.512 5.11298C22.3597 4.9606 22.153 4.875 21.9375 4.875Z" fill="white"/>
</svg>
