<svg width="24" height="24" viewBox="0 0 24 24" fill="none" xmlns="http://www.w3.org/2000/svg">
<path d="M9.5 3H14.5C14.8978 3 15.2794 3.15804 15.5607 3.43934C15.842 3.72064 16 4.10218 16 4.5C16 5.42826 15.6313 6.3185 14.9749 6.97487C14.3185 7.63125 13.4283 8 12.5 8H11.5C10.5717 8 9.6815 7.63125 9.02513 6.97487C8.36875 6.3185 8 5.42826 8 4.5C8 4.10218 8.15804 3.72064 8.43934 3.43934C8.72064 3.15804 9.10218 3 9.5 3Z" stroke="white" stroke-width="2" stroke-linecap="round" stroke-linejoin="round"/>
<path d="M12.5 20.9998H8C6.93913 20.9998 5.92172 20.5784 5.17157 19.8282C4.42143 19.0781 4 18.0607 4 16.9998V15.9998C3.9995 14.2343 4.58306 12.5182 5.65974 11.1189C6.73641 9.71968 8.24572 8.71591 9.95245 8.26403C11.6592 7.81215 13.4674 7.93755 15.0955 8.6207C16.7235 9.30384 18.0798 10.5064 18.953 12.0408M16 18.9998H22M16 18.9998L19 15.9998M16 18.9998L19 21.9998" stroke="white" stroke-width="2" stroke-linecap="round" stroke-linejoin="round"/>
</svg>
