<svg width="24" height="24" viewBox="0 0 24 24" fill="none" xmlns="http://www.w3.org/2000/svg">
<g clip-path="url(#clip0_6232_3101)">
<path d="M13 21H6C5.47 21 4.961 20.789 4.586 20.414C4.211 20.039 4 19.53 4 19V9C4 8.47 4.211 7.961 4.586 7.586C4.961 7.211 5.47 7 6 7H8M20 10.12V9C20 8.47 19.789 7.961 19.414 7.586C19.039 7.211 18.53 7 18 7H16" stroke="white" stroke-width="2" stroke-linecap="round" stroke-linejoin="round"/>
<path d="M16 10V4C16 3.47 15.789 2.961 15.414 2.586C15.039 2.211 14.53 2 14 2H10C9.47 2 8.961 2.211 8.586 2.586C8.211 2.961 8 3.47 8 4V10M16 10H8M16 10H17M8 10H7" stroke="white" stroke-width="2" stroke-linecap="round" stroke-linejoin="round"/>
<path d="M8 14V14.01" stroke="white" stroke-width="2" stroke-linecap="round" stroke-linejoin="round"/>
<path d="M8 17V17.01" stroke="white" stroke-width="2" stroke-linecap="round" stroke-linejoin="round"/>
<path d="M12 13.9902V14.0002" stroke="white" stroke-width="2" stroke-linecap="round" stroke-linejoin="round"/>
<path d="M12 17V17.01" stroke="white" stroke-width="2" stroke-linecap="round" stroke-linejoin="round"/>
<g clip-path="url(#clip1_6232_3101)">
<path d="M16.875 14.5382H20.4538C21.3769 14.5382 22.125 15.2955 22.125 16.2305C22.125 17.1655 21.3769 17.9229 20.4538 17.9229C21.3769 17.9229 22.125 18.6802 22.125 19.6152C22.125 20.5502 21.3769 21.3075 20.4538 21.3075H16.875M17.75 17.9229H21.25M17.75 13.6921V22.1536V14.5382M20.375 13.6921V14.5382M20.375 21.3075V22.1536M9.875 8.61516C9.875 9.06399 9.69063 9.49443 9.36244 9.8118C9.03425 10.1292 8.58913 10.3075 8.125 10.3075C7.66087 10.3075 7.21575 10.1292 6.88756 9.8118C6.55937 9.49443 6.375 9.06399 6.375 8.61516C6.375 8.16633 6.55937 7.73589 6.88756 7.41852C7.21575 7.10115 7.66087 6.92285 8.125 6.92285C8.58913 6.92285 9.03425 7.10115 9.36244 7.41852C9.69063 7.73589 9.875 8.16633 9.875 8.61516ZM9.875 8.61516H16.875M9.875 8.61516V15.3844C9.875 16.0576 10.1516 16.7033 10.6438 17.1794C11.1361 17.6554 11.8038 17.9229 12.5 17.9229H13.375M16.875 8.61516C16.875 9.06399 17.0594 9.49443 17.3876 9.8118C17.7158 10.1292 18.1609 10.3075 18.625 10.3075C19.0891 10.3075 19.5342 10.1292 19.8624 9.8118C20.1906 9.49443 20.375 9.06399 20.375 8.61516C20.375 8.16633 20.1906 7.73589 19.8624 7.41852C19.5342 7.10115 19.0891 6.92285 18.625 6.92285C18.1609 6.92285 17.7158 7.10115 17.3876 7.41852C17.0594 7.73589 16.875 8.16633 16.875 8.61516Z" stroke="white" stroke-width="1.5" stroke-linecap="round" stroke-linejoin="round"/>
</g>
</g>
<defs>
<clipPath id="clip0_6232_3101">
<rect width="24" height="24" fill="white"/>
</clipPath>
<clipPath id="clip1_6232_3101">
<rect width="7" height="11" fill="white" transform="translate(16 12)"/>
</clipPath>
</defs>
</svg>
