<svg width="24" height="24" viewBox="0 0 24 24" fill="none" xmlns="http://www.w3.org/2000/svg">
<path d="M18.8992 5.10282C17.5353 3.74007 15.798 2.81229 13.9069 2.43675C12.0158 2.06121 10.0559 2.25477 8.27476 2.99296C6.49365 3.73116 4.9714 4.98084 3.90041 6.58405C2.82943 8.18725 2.25781 10.072 2.25781 12C2.25781 13.928 2.82943 15.8128 3.90041 17.416C4.9714 19.0192 6.49365 20.2688 8.27476 21.007C10.0559 21.7452 12.0158 21.9388 13.9069 21.5633C15.798 21.1877 17.5353 20.2599 18.8992 18.8972C20.7256 17.0664 21.7512 14.586 21.7512 12C21.7512 9.41402 20.7256 6.9336 18.8992 5.10282ZM15.5336 16.2825C15.4639 16.3522 15.3812 16.4076 15.2902 16.4453C15.1991 16.483 15.1015 16.5025 15.003 16.5025C14.9044 16.5025 14.8068 16.483 14.7158 16.4453C14.6247 16.4076 14.542 16.3522 14.4723 16.2825L12.0011 13.8113L9.53077 16.2825C9.39004 16.4232 9.19917 16.5023 9.00014 16.5023C8.80112 16.5023 8.61025 16.4232 8.46952 16.2825C8.32879 16.1418 8.24973 15.9509 8.24973 15.7519C8.24973 15.5529 8.32879 15.362 8.46952 15.2213L11.4695 12.2213C11.5392 12.1515 11.6219 12.0962 11.7129 12.0585C11.804 12.0207 11.9016 12.0013 12.0001 12.0013C12.0987 12.0013 12.1963 12.0207 12.2873 12.0585C12.3784 12.0962 12.4611 12.1515 12.5308 12.2213L15.5308 15.2213C15.6007 15.2907 15.6562 15.3733 15.6942 15.4642C15.7322 15.5552 15.7519 15.6527 15.7521 15.7513C15.7524 15.8499 15.7332 15.9475 15.6957 16.0387C15.6582 16.1298 15.6031 16.2127 15.5336 16.2825ZM15.5336 11.0325C15.4639 11.1022 15.3812 11.1576 15.2902 11.1953C15.1991 11.233 15.1015 11.2525 15.003 11.2525C14.9044 11.2525 14.8068 11.233 14.7158 11.1953C14.6247 11.1576 14.542 11.1022 14.4723 11.0325L12.0011 8.55844L9.53077 11.0297C9.39004 11.1704 9.19917 11.2495 9.00014 11.2495C8.80112 11.2495 8.61025 11.1704 8.46952 11.0297C8.32879 10.889 8.24973 10.6981 8.24973 10.4991C8.24973 10.3 8.32879 10.1092 8.46952 9.96844L11.4695 6.96844C11.5392 6.89871 11.6219 6.84339 11.7129 6.80565C11.804 6.7679 11.9016 6.74848 12.0001 6.74848C12.0987 6.74848 12.1963 6.7679 12.2873 6.80565C12.3784 6.84339 12.4611 6.89871 12.5308 6.96844L15.5308 9.96844C15.6007 10.0379 15.6562 10.1205 15.6942 10.2114C15.7322 10.3024 15.7519 10.3999 15.7521 10.4985C15.7524 10.597 15.7332 10.6947 15.6957 10.7858C15.6582 10.877 15.6031 10.9599 15.5336 11.0297V11.0325Z" fill="white"/>
</svg>
