<svg width="24" height="24" viewBox="0 0 24 24" fill="none" xmlns="http://www.w3.org/2000/svg">
<path d="M12 12C11.7348 12 11.4804 11.8946 11.2929 11.7071C11.1054 11.5196 11 11.2652 11 11C11 10.7348 11.1054 10.4804 11.2929 10.2929C11.4804 10.1054 11.7348 10 12 10C12.2652 10 12.5196 10.1054 12.7071 10.2929C12.8946 10.4804 13 10.7348 13 11C13 11.2652 12.8946 11.5196 12.7071 11.7071C12.5196 11.8946 12.2652 12 12 12ZM12 12V14.5M12.0028 3C14.3386 5.06658 17.3872 6.14257 20.5028 6C20.9564 7.54302 21.0951 9.16147 20.9109 10.7592C20.7266 12.3569 20.2231 13.9013 19.4302 15.3005C18.6373 16.6998 17.5712 17.9254 16.2952 18.9045C15.0193 19.8836 13.5596 20.5962 12.0028 21C10.446 20.5962 8.98624 19.8836 7.71031 18.9045C6.43437 17.9254 5.36827 16.6998 4.57536 15.3005C3.78245 13.9013 3.2789 12.3569 3.09464 10.7592C2.91038 9.16147 3.04917 7.54302 3.50276 6C6.61829 6.14257 9.66693 5.06658 12.0028 3Z" stroke="white" stroke-width="2" stroke-linecap="round" stroke-linejoin="round"/>
</svg>
